<svg xmlns="http://www.w3.org/2000/svg" width="19.688" height="19.688" viewBox="0 0 19.688 19.688">
  <path id="Icon_awesome-directions" data-name="Icon awesome-directions" d="M19.327,8.972,10.716.361a1.234,1.234,0,0,0-1.744,0L.361,8.972a1.234,1.234,0,0,0,0,1.744l8.611,8.611a1.233,1.233,0,0,0,1.744,0l8.611-8.611a1.234,1.234,0,0,0,0-1.744Zm-3.883.483-3.238,2.989a.308.308,0,0,1-.516-.226V10.152H8v2.461a.308.308,0,0,1-.308.308H6.46a.308.308,0,0,1-.308-.308V9.536A1.231,1.231,0,0,1,7.383,8.306h4.307V6.24a.308.308,0,0,1,.516-.226L15.444,9A.308.308,0,0,1,15.444,9.455Z" fill="#fff"/>
</svg>
